<svg width="16" height="16" viewBox="0 0 17 16" fill="none" xmlns="http://www.w3.org/2000/svg">
<path d="M11.2865 14V12.6667C11.2865 11.9594 11.0055 11.2811 10.5054 10.781C10.0053 10.281 9.32704 10 8.61979 10H4.61979C3.91255 10 3.23427 10.281 2.73417 10.781C2.23408 11.2811 1.95313 11.9594 1.95312 12.6667V14" stroke="#6B7280" stroke-width="1.33333" stroke-linecap="round" stroke-linejoin="round"/>
<path d="M6.61979 7.33333C8.09255 7.33333 9.28646 6.13943 9.28646 4.66667C9.28646 3.19391 8.09255 2 6.61979 2C5.14703 2 3.95312 3.19391 3.95312 4.66667C3.95312 6.13943 5.14703 7.33333 6.61979 7.33333Z" stroke="#6B7280" stroke-width="1.33333" stroke-linecap="round" stroke-linejoin="round"/>
<path d="M15.2871 13.9998V12.6664C15.2867 12.0756 15.09 11.5016 14.728 11.0346C14.366 10.5677 13.8592 10.2341 13.2871 10.0864" stroke="#6B7280" stroke-width="1.33333" stroke-linecap="round" stroke-linejoin="round"/>
<path d="M11.2871 2.08643C11.8607 2.23329 12.3691 2.56689 12.7322 3.03463C13.0953 3.50237 13.2923 4.07765 13.2923 4.66976C13.2923 5.26187 13.0953 5.83715 12.7322 6.30489C12.3691 6.77262 11.8607 7.10623 11.2871 7.25309" stroke="#6B7280" stroke-width="1.33333" stroke-linecap="round" stroke-linejoin="round"/>
</svg>
