<svg width="21" height="20" viewBox="0 0 21 20" fill="none" xmlns="http://www.w3.org/2000/svg">
<path d="M6.71322 13.5832C8.54655 13.5832 10.0465 12.0582 10.0465 10.2082C10.0465 9.2415 9.57155 8.32484 8.62155 7.54984C7.67155 6.77484 6.95488 5.62484 6.71322 4.4165C6.47155 5.62484 5.76322 6.78317 4.80488 7.54984C3.84655 8.3165 3.37988 9.24984 3.37988 10.2082C3.37988 12.0582 4.87988 13.5832 6.71322 13.5832Z" stroke="#3B82F6" stroke-width="1.66667" stroke-linecap="round" stroke-linejoin="round"/>
<path d="M11.3467 5.49993C11.9199 4.58421 12.3262 3.57414 12.5467 2.5166C12.9634 4.59993 14.2134 6.59994 15.8801 7.93327C17.5467 9.2666 18.3801 10.8499 18.3801 12.5166C18.3848 13.6685 18.0475 14.7959 17.4107 15.7558C16.774 16.7158 15.8666 17.4651 14.8035 17.9087C13.7404 18.3523 12.5696 18.4703 11.4394 18.2477C10.3092 18.0251 9.27052 17.4719 8.45508 16.6583" stroke="#3B82F6" stroke-width="1.66667" stroke-linecap="round" stroke-linejoin="round"/>
</svg>
