<svg width="21" height="20" viewBox="0 0 21 20" fill="none" xmlns="http://www.w3.org/2000/svg">
<path d="M15.6302 6.41659C15.8741 6.18172 16.1716 6.00985 16.4969 5.91586C16.8222 5.82186 17.1656 5.80858 17.4972 5.87716C17.8288 5.94573 18.1386 6.0941 18.4 6.30942C18.6613 6.52474 18.8662 6.80051 18.997 7.11286C19.1277 7.42522 19.1804 7.76473 19.1504 8.10201C19.1203 8.4393 19.0086 8.76418 18.8247 9.04853C18.6408 9.33288 18.3904 9.56813 18.0952 9.7339C17.7999 9.89968 17.4687 9.99099 17.1302 9.99993H2.54688" stroke="#87B8FF" stroke-width="1.66667" stroke-linecap="round" stroke-linejoin="round"/>
<path d="M8.88021 3.83333C9.07328 3.63642 9.31219 3.49049 9.57553 3.40863C9.83886 3.32676 10.1184 3.31152 10.3891 3.36427C10.6598 3.41702 10.9131 3.53611 11.1265 3.71086C11.3398 3.88562 11.5064 4.11058 11.6114 4.36558C11.7164 4.62058 11.7565 4.89765 11.7281 5.17195C11.6997 5.44625 11.6036 5.70921 11.4486 5.93727C11.2935 6.16532 11.0843 6.35133 10.8396 6.47863C10.595 6.60593 10.3226 6.67054 10.0469 6.66667H2.54688" stroke="#87B8FF" stroke-width="1.66667" stroke-linecap="round" stroke-linejoin="round"/>
<path d="M11.3802 16.1665C11.5733 16.3634 11.8122 16.5093 12.0755 16.5912C12.3389 16.6731 12.6184 16.6883 12.8891 16.6356C13.1598 16.5828 13.4131 16.4637 13.6265 16.289C13.8398 16.1142 14.0064 15.8893 14.1114 15.6343C14.2164 15.3793 14.2565 15.1022 14.2281 14.8279C14.1997 14.5536 14.1036 14.2906 13.9486 14.0626C13.7935 13.8345 13.5843 13.6485 13.3396 13.5212C13.095 13.3939 12.8226 13.3293 12.5469 13.3332H2.54688" stroke="#87B8FF" stroke-width="1.66667" stroke-linecap="round" stroke-linejoin="round"/>
</svg>
