<svg width="32" height="32" viewBox="0 0 32 32" fill="none" xmlns="http://www.w3.org/2000/svg">
<path d="M19.333 9.99998C19.5028 9.79933 19.7128 9.63601 19.9497 9.52043C20.1866 9.40485 20.4451 9.33953 20.7088 9.32865C20.9725 9.31777 21.2356 9.36156 21.4813 9.45723C21.727 9.55291 21.9499 9.69836 22.1359 9.88432C22.3218 10.0703 22.4668 10.2927 22.5614 10.5373C22.656 10.782 22.6982 11.0435 22.6854 11.3053C22.6726 11.5671 22.605 11.8233 22.4869 12.0577C22.3689 12.2921 22.2029 12.4995 21.9997 12.6666L12.9997 21.6666L9.33301 22.6666L10.333 19L19.333 9.99998Z" stroke="#121212" stroke-width="1.33333" stroke-linecap="round" stroke-linejoin="round"/>
</svg>
